<svg viewBox="0 0 700 200">
    <path id="Lvl1" [ngClass]="{ 'cls-1': true }" d="M79.325,41.875v116.25l35.54,20.519L90,193,9.46,146.5v-93L90,7l24.865,14.356Z"/>
    <path id="Lvl2" [ngClass]="{ 'cls-2': true }" d="M169.325,41.875v116.25l35.54,20.519L180,193,99.46,146.5v-93L180,7l24.865,14.356Z"/>
    <path id="Lvl3" [ngClass]="{ 'cls-3': true }" d="M259.325,41.875v116.25l35.54,20.519L270,193l-80.54-46.5v-93L270,7l24.865,14.356Z"/>
    <path id="Lvl4" [ngClass]="{ 'cls-4': isExpert }" d="M349.325,41.875v116.25l35.54,20.519L360,193l-80.54-46.5v-93L360,7l24.865,14.356Z"/>
    <path id="Lvl5" [ngClass]="{ 'cls-5': isMaster }" d="M450,7l80.54,46.5v93L450,193l-80.54-46.5v-93Z"/>
</svg>