<svg xmlns="http://www.w3.org/2000/svg" width="256" height="256" viewBox="0 0 256 256">
  <defs>
    <style>
      .cls-1 {
        fill: #fff;
        fill-rule: evenodd;
      }
    </style>
  </defs>
  <path id="GA" class="cls-1" d="M128,10L229.325,68.5v117L128,244,26.675,185.5V68.5Zm-8.79,114.443H81.931V137.4H97.791v28.516h-27.8V90.2h27.8v18.034h21.42V86.487q0-9.375-13.034-9.375H61.606q-12.943,0-12.943,9.375v83.2q0,9.31,12.669,9.31h44.844q13.033,0,13.034-9.31V124.443ZM181.1,76.982H158.676L131.059,178.74V179h21.054l4.284-19.336H183.1L187.387,179h21.146Zm-21.875,69.6,10.482-45.963,10.39,45.963H159.223Z"/>
</svg>
